HIERARCHY
ROOT Hips
{
	OFFSET 0.000000 0.000000 0.000000
	CHANNELS 6 Xposition Yposition Zposition Zrotation Yrotation Xrotation 
	JOINT LHipJoint
	{
		OFFSET 0.000000 0.000000 0.000000
		CHANNELS 3 Zrotation Yrotation Xrotation
		JOINT LeftUpLeg
		{
			OFFSET 1.363060 -1.794630 0.839290
			CHANNELS 3 Zrotation Yrotation Xrotation
			JOINT LeftLeg
			{
				OFFSET 2.448110 -6.726130 0.000000
				CHANNELS 3 Zrotation Yrotation Xrotation
				JOINT LeftFoot
				{
					OFFSET 2.562200 -7.039590 0.000000
					CHANNELS 3 Zrotation Yrotation Xrotation
					JOINT LeftToeBase
					{
						OFFSET 0.157640 -0.433110 2.322550
						CHANNELS 3 Zrotation Yrotation Xrotation
						End Site
						{
							OFFSET 0.000000 0.000000 0.000000
						}
					}
				}
			}
		}
	}
	JOINT RHipJoint
	{
		OFFSET 0.000000 0.000000 0.000000
		CHANNELS 3 Zrotation Yrotation Xrotation
		JOINT RightUpLeg
		{
			OFFSET -1.305520 -1.794630 0.839290
			CHANNELS 3 Zrotation Yrotation Xrotation
			JOINT RightLeg
			{
				OFFSET -2.542530 -6.985550 0.000000
				CHANNELS 3 Zrotation Yrotation Xrotation
				JOINT RightFoot
				{
					OFFSET -2.568260 -7.056230 0.000000
					CHANNELS 3 Zrotation Yrotation Xrotation
					JOINT RightToeBase
					{
						OFFSET -0.164730 -0.452590 2.363150
						CHANNELS 3 Zrotation Yrotation Xrotation
						End Site
						{
							OFFSET 0.000000 0.000000 0.000000
						}
					}
				}
			}
		}
	}
}
MOTION
Frames: 22
Frame Time: 0.008333
-9.157055 17.902449 -0.577569 137.325366 84.277415 164.355113 -8.693044 1.963843 4.430548 -14.438368 -11.086945 -34.305175 -1.727856 0.091045 22.980521 2.483909 13.147879 -4.550433 1.341500 0.000001 -28.636100 11.010541 -3.335282 -0.195283 8.249234 -7.995864 -10.012630 1.014092 -1.090596 15.390121 -0.187388 1.438022 24.508603 0.627700 -0.000000 -70.575199
-8.894038 17.951281 -0.581246 139.433281 84.738259 166.512918 -8.650259 1.896300 4.614203 -14.593220 -11.252844 -34.414573 -1.918141 -0.222636 19.079538 2.306847 12.444903 -3.259908 1.633400 0.000000 -29.905400 10.954822 -3.405313 -0.358038 8.353130 -8.353467 -9.713701 0.975050 -1.156001 15.972272 -0.256289 1.295091 25.512108 0.609900 0.000001 -70.234000
-8.632700 17.985359 -0.586567 142.328414 85.181569 169.403818 -8.654752 1.819622 4.736250 -14.813600 -11.145935 -34.592434 -2.111424 -0.513781 15.538425 2.108966 11.681915 -2.004381 1.869100 0.000000 -31.510700 10.864462 -3.478007 -0.511778 8.502903 -8.632478 -9.409518 0.931267 -1.222946 16.792955 -0.343724 0.769932 25.921130 0.361000 -0.000000 -70.038000
-8.372930 18.005111 -0.593390 145.982601 85.567488 172.980287 -8.700902 1.741214 4.781439 -15.197989 -10.723120 -34.838724 -2.320939 -0.770351 12.445265 1.883310 10.787332 -0.822828 2.025501 0.000000 -33.503700 10.749673 -3.555122 -0.660291 8.655581 -8.889420 -9.088983 0.883125 -1.294714 17.838734 -0.443954 -0.037074 25.803707 -0.056600 0.000000 -69.915400
-8.114570 18.011221 -0.601632 150.261315 85.863556 177.095848 -8.778298 1.667911 4.742084 -15.819910 -9.980547 -35.144554 -2.557355 -0.984492 9.857269 1.626247 9.707429 0.256026 2.084100 0.000000 -35.859599 10.622883 -3.637102 -0.806941 8.771582 -9.171065 -8.746635 0.831986 -1.373897 19.088351 -0.552975 -1.010294 25.252997 -0.561700 0.000000 -69.830500
-7.857397 18.004325 -0.611326 154.880919 86.053195 -178.535890 -8.870242 1.606647 4.622989 -16.705402 -8.972701 -35.489237 -2.822527 -1.153573 7.787974 1.343283 8.442759 1.217206 2.041300 -0.000000 -38.466701 10.500629 -3.721312 -0.956957 8.813157 -9.517929 -8.386709 0.779620 -1.462863 20.524120 -0.665787 -2.027217 24.370330 -1.069300 -0.000000 -69.742600
-7.601248 17.984990 -0.622504 159.539354 86.142448 -174.209919 -8.960052 1.563260 4.440034 -17.820227 -7.796967 -35.847935 -3.106396 -1.277915 6.219352 1.048495 7.047306 2.053724 1.909800 -0.000000 -41.127200 10.397487 -3.803604 -1.114719 8.756043 -9.949156 -8.018061 0.727365 -1.563022 22.124405 -0.776691 -2.986974 23.264952 -1.514000 0.000000 -69.626700
-7.345854 17.953548 -0.635207 164.031046 86.155601 -170.115694 -9.036610 1.540291 4.217073 -19.079624 -6.573409 -36.197462 -3.389020 -1.359526 5.111965 0.761628 5.616197 2.761060 1.716199 0.000000 -43.592000 10.321230 -3.879764 -1.282775 8.592178 -10.459635 -7.652083 0.675522 -1.674653 23.864649 -0.880170 -3.822949 22.044111 -1.859700 -0.000000 -69.482100
-7.091034 17.910213 -0.649429 168.359224 86.123706 -166.229879 -9.098494 1.534970 3.977579 -20.375231 -5.406082 -36.526896 -3.647749 -1.399700 4.434038 0.500698 4.244151 3.325498 1.489500 0.000000 -45.598800 10.269997 -3.948566 -1.459094 8.333866 -11.018857 -7.300183 0.623717 -1.797083 25.715563 -0.972854 -4.510692 20.806129 -2.101200 0.000000 -69.333800
-6.836458 17.855014 -0.664655 172.461677 86.082201 -162.588721 -9.144013 1.538660 3.757969 -21.572349 -4.455326 -36.786752 -3.854029 -1.409339 4.077939 0.292380 3.108611 3.762003 1.283000 0.000000 -46.976300 10.242586 -4.004277 -1.646656 7.980453 -11.598156 -6.979146 0.569944 -1.929432 27.659987 -1.051921 -5.037389 19.616095 -2.243600 0.000001 -69.167400
-6.581912 17.787849 -0.680537 176.610717 86.053202 -158.897303 -9.181389 1.540487 3.573368 -22.578201 -3.773362 -36.989844 -3.994301 -1.390267 4.039184 0.144406 2.264936 4.030235 1.116500 0.000000 -47.535800 10.228676 -4.050102 -1.836538 7.567186 -12.143418 -6.703471 0.513162 -2.070042 29.672279 -1.119776 -5.439765 18.526273 -2.316700 0.000000 -69.010500
-6.327133 17.708596 -0.696291 -179.091227 86.056862 -155.030214 -9.211610 1.529799 3.445390 -23.313762 -3.445661 -37.127853 -4.056647 -1.350867 4.273287 0.069272 1.808444 4.098051 1.019300 0.000000 -47.165900 10.224559 -4.083789 -2.024763 7.107746 -12.617799 -6.494730 0.450985 -2.217156 31.743888 -1.179293 -5.752032 17.552039 -2.344700 0.000000 -68.863800
-6.071952 17.617156 -0.711083 -174.581447 86.105045 -150.904716 -9.231753 1.498850 3.389106 -23.741714 -3.529998 -37.211611 -4.037474 -1.297862 4.768702 0.075145 1.793699 3.908778 1.005100 -0.000001 -45.774100 10.229522 -4.102895 -2.206691 6.609147 -12.995667 -6.378984 0.381294 -2.369004 33.875967 -1.234358 -6.013258 16.682170 -2.349200 0.000000 -68.710800
-5.816294 17.513477 -0.724008 -169.880504 86.203965 -146.526384 -9.234063 1.444804 3.412576 -23.869816 -4.053720 -37.273194 -3.940642 -1.234779 5.551457 0.167161 2.229132 3.385079 1.067200 0.000000 -43.284700 10.246474 -4.104415 -2.377360 6.067241 -13.266777 -6.384092 0.302158 -2.523808 36.078022 -1.288976 -6.260946 15.885390 -2.346301 0.000000 -68.532600
-5.560203 17.397690 -0.734318 -165.086476 86.356374 -141.985659 -9.207387 1.370014 3.514454 -23.750252 -5.003771 -37.365079 -3.776896 -1.160648 6.687151 0.347086 3.068285 2.437411 1.172000 -0.000000 -39.651600 10.281317 -4.085558 -2.531342 5.467050 -13.436352 -6.535121 0.212247 -2.679982 38.362959 -1.346454 -6.526000 15.118792 -2.345800 -0.000001 -68.308300
-5.303817 17.270190 -0.741492 -160.259919 86.559237 -137.346714 -9.142954 1.282239 3.676408 -23.478967 -6.288753 -37.569973 -3.565344 -1.065951 8.302723 0.607497 4.176982 0.967885 1.249800 -0.000000 -34.861700 10.339379 -4.046933 -2.659482 4.797565 -13.516232 -6.848690 0.111142 -2.836172 40.742449 -1.409214 -6.834319 14.333494 -2.352900 0.000000 -67.969500
-5.047427 17.131785 -0.745220 -155.567975 86.815699 -132.791370 -9.033735 1.189645 3.876487 -23.159503 -7.808974 -37.933794 -3.325200 -0.942969 10.477806 0.941288 5.435233 -1.066678 1.226900 0.000000 -29.051200 10.427329 -3.987232 -2.756587 4.032832 -13.529319 -7.322740 -0.001706 -2.991442 43.217329 -1.478539 -7.199691 13.494319 -2.367601 0.000000 -67.578400
-4.791370 16.983619 -0.745995 -150.747504 87.108283 -128.083592 -8.890579 1.101751 4.070104 -22.904565 -9.351254 -38.531654 -3.081459 -0.771821 13.355957 1.321400 6.628861 -3.693231 1.017300 0.000000 -22.418700 10.541696 -3.915717 -2.808853 3.195438 -13.480992 -7.941377 -0.125391 -3.144919 45.778708 -1.555395 -7.640256 12.568305 -2.390400 0.000000 -67.028901
-4.536126 16.827582 -0.744532 -145.469292 87.418014 -122.923553 -8.730541 1.021901 4.225197 -22.774042 -10.764630 -39.351143 -2.848186 -0.544067 16.934129 1.726145 7.661912 -6.825891 0.591400 -0.000000 -15.403100 10.678513 -3.838804 -2.810840 2.305781 -13.376387 -8.672435 -0.259388 -3.296071 48.403407 -1.639892 -8.162057 11.544641 -2.418100 -0.000000 -66.352500
-4.282214 16.666380 -0.742119 -139.114647 87.711924 -116.718797 -8.577941 0.950382 4.319123 -22.778595 -11.929593 -40.335834 -2.631657 -0.259057 21.116479 2.132452 8.500366 -10.307407 -0.031400 -0.000000 -8.567500 10.830596 -3.763396 -2.760482 1.406399 -13.210338 -9.480753 -0.403072 -3.443803 51.060845 -1.731358 -8.763694 10.423251 -2.445000 -0.000000 -65.514400
-4.030064 16.503720 -0.739986 -131.121304 87.956872 -108.922097 -8.451449 0.888779 4.348964 -22.892491 -12.802229 -41.376532 -2.432322 0.069120 25.681989 2.524094 9.188546 -13.934291 -0.794400 -0.000000 -2.463300 10.993507 -3.689673 -2.662871 0.531597 -12.977107 -10.335550 -0.556139 -3.585616 53.713305 -1.828073 -9.429744 9.220362 -2.462600 0.000001 -64.527900
-3.780065 16.344086 -0.739239 -121.336625 88.130277 -99.383687 -8.360805 0.844673 4.324563 -23.087870 -13.385396 -42.349496 -2.251911 0.418037 30.349609 2.889911 9.786979 -17.520560 178.363700 -0.000000 -2.568600 11.163340 -3.610514 -2.528402 -0.300668 -12.673897 -11.217972 -0.717881 -3.717993 56.323115 -1.926836 -10.129555 7.959793 -2.459900 0.000000 -63.397900
